<?xml version="1.0" standalone="no"?>
<!DOCTYPE svg PUBLIC "-//W3C//DTD SVG 20010904//EN"
 "http://www.w3.org/TR/2001/REC-SVG-20010904/DTD/svg10.dtd">
<svg version="1.0" xmlns="http://www.w3.org/2000/svg"
 width="650.000000pt" height="647.000000pt" viewBox="0 0 650.000000 647.000000"
 preserveAspectRatio="xMidYMid meet">

<g transform="translate(0.000000,647.000000) scale(0.100000,-0.100000)"
fill="#000000" stroke="none">
<path d="M2557 5384 c-4 -4 -7 -477 -7 -1051 l0 -1043 320 0 320 0 0 208 c0
114 4 212 8 218 5 8 81 13 237 17 205 4 240 7 325 30 138 37 200 62 282 117
178 118 270 254 319 475 22 98 17 352 -10 450 -23 87 -88 227 -109 233 -7 2
-242 -225 -523 -505 -280 -279 -515 -509 -522 -511 -7 -1 -122 108 -257 243
l-245 245 90 90 c49 49 94 90 100 90 6 0 75 -65 155 -145 80 -80 149 -145 155
-145 6 0 198 188 429 419 l418 418 -28 20 c-52 35 -152 74 -261 100 l-108 26
-540 4 c-297 3 -544 1 -548 -3z"/>
<path d="M1922 3054 c-49 -34 -8 -115 51 -100 32 8 51 50 36 79 -22 40 -50 47
-87 21z"/>
<path d="M5600 2680 l0 -390 50 0 50 0 0 168 c0 154 2 171 23 212 55 109 219
123 284 23 16 -24 18 -51 18 -215 l0 -188 48 0 47 0 0 200 c0 214 -6 248 -53
299 -51 55 -151 75 -240 49 -23 -7 -61 -31 -84 -54 -29 -27 -43 -35 -43 -25
-1 9 -2 52 -4 96 -2 44 -4 110 -5 148 l-1 67 -45 0 -45 0 0 -390z"/>
<path d="M810 2819 c0 -118 -3 -285 -7 -371 l-6 -158 51 0 52 0 0 114 0 113
143 5 c133 4 148 6 201 32 70 34 111 86 126 163 19 92 -5 187 -62 240 -13 12
-46 32 -73 45 -45 20 -69 23 -237 26 l-188 4 0 -213z m387 101 c58 -26 83 -69
83 -143 0 -72 -19 -107 -74 -139 -37 -21 -53 -23 -171 -23 l-130 0 -3 163 -2
162 127 0 c105 0 136 -4 170 -20z"/>
<path d="M3770 2985 l0 -45 120 0 121 0 -3 -325 -3 -325 53 0 53 0 -7 325 -7
325 121 0 122 0 0 45 0 45 -285 0 -285 0 0 -45z"/>
<path d="M1510 2570 l0 -280 45 0 45 0 0 154 c0 157 7 198 43 250 23 32 88 65
130 66 26 0 27 3 27 46 l0 47 -42 -7 c-55 -9 -103 -39 -133 -84 l-25 -37 0 63
0 62 -45 0 -45 0 0 -280z"/>
<path d="M1910 2571 l0 -281 50 0 50 0 -2 278 -3 277 -47 3 -48 3 0 -280z"/>
<path d="M2200 2571 l0 -281 50 0 50 0 0 168 c0 154 2 171 23 212 31 61 65 83
135 88 71 5 114 -14 139 -61 15 -26 18 -65 21 -219 l4 -188 44 0 44 0 0 148
c0 81 5 165 10 186 19 82 84 136 164 136 63 0 94 -15 123 -59 22 -32 23 -43
23 -222 l0 -189 50 0 50 0 0 188 c0 201 -8 248 -47 301 -81 107 -297 89 -359
-31 l-16 -31 -23 39 c-69 113 -243 128 -342 30 l-42 -42 -3 50 -3 51 -47 3
-48 3 0 -280z"/>
<path d="M3444 2839 c-65 -19 -127 -71 -159 -133 -26 -52 -30 -70 -30 -140 1
-68 5 -90 28 -132 49 -95 135 -144 253 -144 71 0 152 26 199 65 l30 25 -26 25
-25 26 -60 -31 c-52 -28 -66 -31 -125 -28 -54 3 -73 9 -103 31 -33 26 -76 91
-76 117 0 6 75 10 221 10 l222 0 -5 70 c-6 82 -44 169 -88 200 -64 46 -175 63
-256 39z m186 -92 c36 -24 64 -65 74 -109 l6 -28 -180 0 c-201 0 -197 -2 -160
70 18 36 55 70 90 83 8 3 42 6 76 6 48 1 68 -4 94 -22z"/>
<path d="M4520 2841 c-123 -38 -193 -134 -194 -271 -2 -170 108 -280 280 -280
73 0 154 27 198 66 l29 26 -25 24 -24 25 -58 -31 c-92 -48 -200 -37 -258 27
-15 17 -48 83 -48 98 0 3 100 5 221 5 l222 0 -5 73 c-10 157 -105 248 -257
246 -31 0 -67 -4 -81 -8z m187 -97 c31 -23 57 -65 67 -106 l6 -28 -181 0 -181
0 7 28 c11 47 40 86 81 110 51 30 158 28 201 -4z"/>
<path d="M5127 2836 c-79 -29 -140 -90 -165 -165 -15 -44 -15 -158 0 -202 22
-66 68 -118 135 -151 58 -28 68 -30 145 -26 88 5 132 21 181 66 l27 26 -26 28
-27 27 -28 -24 c-42 -35 -129 -52 -187 -37 -141 37 -188 228 -83 333 65 66
161 74 251 23 l45 -26 22 29 c13 15 22 32 20 37 -2 5 -27 23 -57 39 -45 26
-66 31 -134 34 -53 2 -94 -2 -119 -11z"/>
<path d="M2767 2082 c-22 -13 -27 -23 -25 -47 2 -24 13 -35 58 -60 30 -17 56
-39 58 -48 8 -43 -51 -62 -95 -32 -28 20 -45 -2 -18 -22 34 -24 103 -20 128 9
36 43 18 79 -58 115 -34 15 -40 23 -40 48 0 25 4 31 27 33 15 2 36 -2 47 -7
11 -6 22 -7 25 -3 6 11 -31 30 -59 30 -11 0 -33 -7 -48 -16z"/>
<path d="M2940 2006 c0 -85 2 -98 23 -122 19 -22 32 -27 62 -26 66 3 79 26 83
143 3 82 1 100 -10 97 -9 -3 -14 -30 -16 -93 -3 -96 -16 -125 -57 -125 -40 0
-53 28 -57 124 -2 60 -7 91 -15 94 -10 3 -13 -20 -13 -92z"/>
<path d="M3186 2093 c-3 -4 -6 -58 -6 -120 0 -83 3 -114 12 -111 6 2 12 24 12
49 l1 44 49 5 c37 4 53 11 67 30 22 31 15 76 -14 91 -23 13 -112 21 -121 12z
m98 -23 c20 -7 26 -17 26 -38 0 -39 -17 -52 -67 -52 l-43 0 0 50 c0 49 1 50
29 50 16 0 41 -4 55 -10z"/>
<path d="M3397 2094 c-4 -4 -7 -58 -7 -121 0 -94 3 -113 15 -113 11 0 15 12
15 50 l0 50 44 0 c36 0 48 5 65 26 44 56 14 102 -69 110 -31 2 -59 2 -63 -2z
m104 -24 c22 -12 26 -59 7 -78 -7 -7 -29 -12 -49 -12 -41 0 -49 11 -49 66 0
32 2 34 36 34 19 0 44 -5 55 -10z"/>
<path d="M3641 2086 c-35 -19 -50 -54 -51 -113 0 -41 5 -58 26 -82 22 -26 33
-31 70 -31 53 0 90 32 100 87 19 102 -65 183 -145 139z m74 -12 c22 -9 45 -57
45 -94 0 -67 -56 -119 -99 -93 -30 18 -53 79 -45 119 11 60 50 86 99 68z"/>
<path d="M3851 2082 c-6 -12 -11 -66 -11 -121 0 -83 3 -101 15 -101 11 0 15
12 15 50 0 46 2 50 24 50 19 0 31 -11 52 -50 15 -27 33 -50 41 -50 18 0 17 5
-13 56 l-26 44 26 21 c31 24 35 68 8 92 -10 9 -41 19 -69 23 -45 5 -53 3 -62
-14z m100 -12 c12 -7 19 -21 19 -41 0 -32 -27 -49 -76 -49 -22 0 -24 4 -24 50
0 49 1 50 31 50 17 0 39 -5 50 -10z"/>
<path d="M4035 2090 c-4 -6 8 -10 29 -10 l36 0 0 -110 c0 -91 3 -110 15 -110
12 0 15 19 15 110 l0 110 36 0 c21 0 33 4 29 10 -3 6 -39 10 -80 10 -41 0 -77
-4 -80 -10z"/>
<path d="M960 1975 c0 -13 99 -15 835 -15 736 0 835 2 835 15 0 13 -99 15
-835 15 -736 0 -835 -2 -835 -15z"/>
<path d="M4290 1975 c0 -13 100 -15 840 -15 740 0 840 2 840 15 0 13 -100 15
-840 15 -740 0 -840 -2 -840 -15z"/>
</g>
</svg>
